Plot

First time director/screenwriter Scott Bunt pays tribute to the classic Hammer Studio films of yesteryear
and the stylish shockers of director Mario Bava with this gruesome tale of an oppressive evil that washes
over a small village of innocents....

Runtime ..........: 1h 29mn
File Size ........: 937 MiB
Resolution .......: 704x396
IMDb URL .........: http://www.imdb.com/title/tt0471032/
Language .........: English
Video
ID : 0
Format : MPEG-4 Visual
Format profile : Advanced Simple@L5
Format settings, BVOP : Yes
Format settings, QPel : No
Format settings, GMC : No warppoints
Format settings, Matrix : Default (H.263)
Codec ID : XVID
Codec ID/Hint : XviD
Duration : 1h 29mn
Bit rate : 1 071 Kbps
Width : 704 pixels
Height : 396 pixels
Display aspect ratio : 16:9
Frame rate : 29.970 fps
Color space : YUV
Chroma subsampling : 4:2:0
Bit depth : 8 bits
Scan type : Progressive
Compression mode : Lossy
Bits/(Pixel*Frame) : 0.128
Stream size : 687 MiB (73%)
Writing library : XviD 1.2.1 (UTC 2008-12-04)

Audio
ID : 1
Format : AC-3
Format/Info : Audio Coding 3
Mode extension : CM (complete main)
Codec ID : 2000
Duration : 1h 29mn
Bit rate mode : Constant
Bit rate : 384 Kbps
Channel(s) : 6 channels
Channel positions : Front: L C R, Side: L R, LFE
Sampling rate : 48.0 KHz
Bit depth : 16 bits
Compression mode : Lossy
Video delay : 33ms
Stream size : 246 MiB (26%)
Alignment : Split accross interleaves
Interleave, duration : 500 ms (14.98 video frames)
Interleave, preload duration : 500 ms
Language : English

Screens:
 
http://leetleech.org/images/23603575245769984251.png 
http://leetleech.org/images/68029223366140326394.png 
http://leetleech.org/images/00116441535357073905.png
